<?xml version="1.0" encoding="UTF-8" standalone="no"?>
<svg
   id="Calque_1"
   version="1.1"
   viewBox="0 0 958.08006 321.94002"
   sodipodi:docname="logoInseeEn.svg"
   width="958.08002"
   height="321.94"
   inkscape:version="1.4.2 (ebf0e94, 2025-05-08)"
   xmlns:inkscape="http://www.inkscape.org/namespaces/inkscape"
   xmlns:sodipodi="http://sodipodi.sourceforge.net/DTD/sodipodi-0.dtd"
   xmlns="http://www.w3.org/2000/svg"
   xmlns:svg="http://www.w3.org/2000/svg">
  <sodipodi:namedview
     id="namedview25"
     pagecolor="#ffffff"
     bordercolor="#000000"
     borderopacity="0.25"
     inkscape:showpageshadow="2"
     inkscape:pageopacity="0.0"
     inkscape:pagecheckerboard="0"
     inkscape:deskcolor="#d1d1d1"
     inkscape:zoom="0.66932075"
     inkscape:cx="372.76597"
     inkscape:cy="330.93251"
     inkscape:window-width="1920"
     inkscape:window-height="1009"
     inkscape:window-x="-8"
     inkscape:window-y="-8"
     inkscape:window-maximized="1"
     inkscape:current-layer="Calque_1" />
  <!-- Generator: Adobe Illustrator 29.5.1, SVG Export Plug-In . SVG Version: 2.1.0 Build 141)  -->
  <defs
     id="defs1">
    <style
       id="style1">
      .st0 {
        fill: #7a57ff;
      }

      .st1 {
        fill: #c869ff;
      }

      .st2 {
        fill: #248bff;
      }
    </style>
  </defs>
  <g
     id="g26"
     transform="translate(-158.36951,-137.45278)">
    <g
       id="Emblème">
      <rect
         class="st1"
         x="1082.54"
         y="136.14"
         width="36.779999"
         height="125.01"
         id="rect1" />
      <rect
         class="st0"
         x="1032.59"
         y="184.10001"
         width="36.779999"
         height="77.040001"
         id="rect2" />
      <polygon
         class="st2"
         points="1019.41,161.49 982.63,161.49 982.63,298.67 985.37,298.67 1019.41,261.15 "
         id="polygon2" />
    </g>
    <g
       id="g25">
      <path
         id="Lettrage"
         d="m 846.69,273.32 c 3.23,-19.88 16.15,-31.07 36.78,-31.07 19.14,0 29.82,12.18 31.31,31.07 h -68.1 z m 43.24,89.47 c 23.11,0 42.75,-6.71 55.92,-16.4 v -34.55 c -12.68,10.69 -29.82,20.63 -51.45,20.63 -29.33,0 -43.99,-12.18 -47.72,-34.79 h 103.64 c 0.99,-4.23 1.74,-9.69 1.74,-16.65 0,-40.76 -26.1,-67.35 -68.1,-67.35 -45.98,0 -74.81,30.82 -74.81,74.56 0,49.21 33.05,74.56 80.77,74.56 z M 683.9,273.32 c 3.23,-19.88 16.15,-31.07 36.78,-31.07 19.14,0 29.82,12.18 31.31,31.07 h -68.1 z m 43.24,89.47 c 23.11,0 42.75,-6.71 55.92,-16.4 v -34.55 c -12.68,10.69 -29.82,20.63 -51.45,20.63 -29.33,0 -43.99,-12.18 -47.72,-34.79 h 103.64 c 0.99,-4.23 1.74,-9.69 1.74,-16.65 0,-40.76 -26.1,-67.35 -68.1,-67.35 -45.98,0 -74.81,30.82 -74.81,74.56 0,49.21 33.05,74.56 80.77,74.56 z m -168.75,0 c 39.02,0 66.36,-15.66 66.36,-48.71 0,-33.05 -29.58,-38.27 -62.63,-43.24 -25.1,-3.73 -37.28,-4.97 -37.28,-14.41 0,-9.44 11.43,-13.17 30.32,-13.17 20.88,0 44.24,7.21 63.62,18.89 v -33.3 c -17.4,-9.44 -39.52,-15.16 -63.13,-15.16 -37.53,0 -65.61,14.41 -65.61,44.24 0,34.05 32.06,41.5 62.38,45.73 22.62,3.23 36.29,3.98 36.29,15.41 0,10.19 -10.94,13.42 -30.82,13.42 -26.34,0 -50.45,-8.95 -68.59,-26.1 v 37.53 c 14.91,10.69 41.75,18.89 69.09,18.89 z m -230.63,-2.48 h 36.78 v -81.02 c 0.5,-22.62 11.43,-36.53 30.57,-36.53 20.88,0 27.59,13.42 27.59,33.05 v 84.5 h 36.78 v -89.97 c 0,-38.03 -22.12,-56.66 -52.69,-56.66 -17.4,0 -32.56,6.46 -42.25,20.38 v -17.89 h -36.78 v 144.15 z m -166.52,0 H 299.17 V 331.73 H 249.71 V 190.07 h 49.46 V 161.49 H 161.24 v 28.58 h 49.46 v 141.66 h -49.46 z" />
      <g
         id="g24">
        <path
           d="m 161.58,397.25 h 7.68 l 13.7,22.6 13.7,-22.6 h 7.68 v 44.82 h -6.02 v -36.75 l -13.06,21.38 h -4.61 l -13.06,-21.38 v 36.75 h -6.02 v -44.82 z"
           id="path2" />
        <path
           d="m 231.75,443.35 c -10.88,0 -17.61,-8 -17.61,-17.41 0,-9.41 6.27,-17.41 16.26,-17.41 8.77,0 14.47,6.15 14.47,14.08 0,1.28 -0.19,2.5 -0.38,3.39 h -24.78 c 0.19,7.75 5.12,12.42 12.04,12.42 4.16,0 7.68,-1.92 9.8,-4.8 l 4.03,3.14 c -3.01,4.03 -7.81,6.59 -13.83,6.59 z M 220.1,421.84 h 19.33 c -0.19,-4.74 -3.46,-8.71 -9.16,-8.71 -5.31,0 -9.03,3.14 -10.18,8.71 z"
           id="path3" />
        <path
           d="m 251.98,433.94 c 0,-4.87 3.71,-8.32 10.56,-9.48 l 10.88,-1.79 v -2.24 c 0,-4.48 -3.2,-7.04 -7.81,-7.04 -3.71,0 -6.72,1.73 -8.71,4.48 l -4.1,-3.14 c 2.82,-3.84 7.36,-6.21 13,-6.21 8.19,0 13.06,4.8 13.06,11.91 v 21.64 h -5.44 v -4.1 c -2.43,3.14 -6.66,4.99 -10.82,4.99 -6.34,0 -10.63,-3.52 -10.63,-9.03 z m 11.53,4.54 c 4.29,0 7.81,-2.05 9.92,-5.51 v -6.34 l -9.54,1.6 c -4.42,0.77 -6.4,2.75 -6.4,5.51 0,2.76 2.24,4.74 6.02,4.74 z"
           id="path4" />
        <path
           d="m 290.21,434.38 c 2.24,2.82 4.93,4.42 8.19,4.42 3.59,0 5.63,-2.18 5.63,-4.99 0,-7.23 -16.13,-4.67 -16.13,-16.07 0,-5.06 4.29,-9.22 10.5,-9.22 4.61,0 8.58,2.18 10.82,5.31 l -3.78,3.2 c -1.73,-2.43 -4.16,-3.97 -6.98,-3.97 -3.46,0 -5.31,2.05 -5.31,4.55 0,7.23 16.2,4.93 16.2,15.94 -0.06,6.02 -4.87,9.8 -10.88,9.8 -5.12,0 -9.16,-2.05 -12.1,-5.7 l 3.84,-3.26 z"
           id="path5" />
        <path
           d="m 340.66,409.8 h 5.44 v 18.25 c 0,9.67 -5.57,15.3 -14.34,15.3 -8.77,0 -14.28,-5.63 -14.28,-15.3 V 409.8 h 5.44 v 18.44 c 0,6.34 3.39,9.99 8.9,9.99 5.51,0 8.83,-3.65 8.83,-9.99 V 409.8 Z"
           id="path6" />
        <path
           d="m 356.86,409.8 h 5.44 v 4.03 c 2.37,-2.82 5.31,-4.67 9.41,-4.67 1.02,0 1.99,0.13 2.75,0.38 v 5.31 c -0.96,-0.26 -1.92,-0.38 -3.2,-0.38 -4.23,0 -6.98,2.18 -8.96,5.44 v 22.15 h -5.44 v -32.27 z"
           id="path7" />
        <path
           d="m 381.19,397.57 c 0,-2.05 1.73,-3.78 3.84,-3.78 2.11,0 3.78,1.73 3.78,3.78 0,2.05 -1.66,3.84 -3.78,3.84 -2.12,0 -3.84,-1.73 -3.84,-3.84 z m 1.09,12.23 h 5.44 v 32.27 h -5.44 z"
           id="path8" />
        <path
           d="m 399.25,409.8 h 5.44 v 3.65 c 2.62,-2.88 5.95,-4.93 10.76,-4.93 7.23,0 12.61,4.87 12.61,14.02 v 19.53 h -5.44 v -19.33 c 0,-5.76 -3.26,-9.09 -8.26,-9.09 -4.67,0 -7.62,2.69 -9.67,6.08 v 22.34 h -5.44 z"
           id="path9" />
        <path
           d="m 440.1,439.76 c -1.47,-1.15 -2.24,-2.88 -2.24,-4.61 0,-2.56 1.34,-4.67 3.84,-6.27 -2.82,-2.11 -4.48,-5.38 -4.48,-8.96 0,-6.21 4.87,-11.46 12.55,-11.46 2.37,0 4.48,0.51 6.21,1.34 h 11.97 v 4.74 h -6.98 c 0.9,1.6 1.34,3.46 1.34,5.38 0,6.15 -4.8,11.4 -12.55,11.4 -1.6,0 -3.14,-0.26 -4.48,-0.64 -1.34,0.96 -2.11,2.11 -2.11,3.33 0,1.34 0.7,2.31 2.69,2.31 h 9.22 c 8.51,0 12.48,4.16 12.48,9.92 0,6.79 -6.79,11.84 -16.45,11.84 -9.66,0 -15.81,-3.71 -15.81,-10.18 0,-3.26 1.6,-5.89 4.8,-8.13 z m 10.94,13.77 c 6.79,0 11.08,-2.69 11.08,-6.91 0,-3.07 -1.73,-5.51 -7.49,-5.51 h -10.44 c -2.24,1.66 -3.59,3.58 -3.59,6.15 0,3.91 4.03,6.27 10.44,6.27 z m 6.15,-33.62 c 0,-3.97 -2.69,-7.17 -7.36,-7.17 -4.67,0 -7.43,3.2 -7.43,7.17 0,3.97 2.62,7.11 7.43,7.11 4.81,0 7.36,-3.2 7.36,-7.11 z"
           id="path10" />
        <path
           d="m 471.28,452.31 5.44,-16.97 h 6.21 l -6.59,16.97 z"
           id="path11" />
        <path
           d="m 531.27,409.8 h 5.44 v 18.25 c 0,9.67 -5.57,15.3 -14.34,15.3 -8.77,0 -14.28,-5.63 -14.28,-15.3 V 409.8 h 5.44 v 18.44 c 0,6.34 3.39,9.99 8.9,9.99 5.51,0 8.84,-3.65 8.84,-9.99 z"
           id="path12" />
        <path
           d="m 547.47,409.8 h 5.44 v 3.65 c 2.63,-2.88 5.96,-4.93 10.76,-4.93 7.23,0 12.61,4.87 12.61,14.02 v 19.53 h -5.44 v -19.33 c 0,-5.76 -3.27,-9.09 -8.26,-9.09 -4.67,0 -7.62,2.69 -9.67,6.08 v 22.34 h -5.44 z"
           id="path13" />
        <path
           d="m 601.06,408.52 c 4.8,0 8.58,1.86 11.46,5.12 v -19.59 h 5.44 v 48.02 h -5.44 v -3.84 c -2.88,3.27 -6.66,5.12 -11.46,5.12 -10.12,0 -16.58,-8 -16.58,-17.41 0,-9.41 6.47,-17.41 16.58,-17.41 z m 0.64,29.71 c 4.48,0 8.45,-2.18 10.82,-5.95 V 419.6 c -2.5,-3.84 -6.4,-5.95 -10.82,-5.95 -6.85,0 -11.46,5.44 -11.46,12.29 0,6.85 4.61,12.29 11.46,12.29 z"
           id="path14" />
        <path
           d="m 644.28,443.35 c -10.88,0 -17.61,-8 -17.61,-17.41 0,-9.41 6.27,-17.41 16.26,-17.41 8.77,0 14.47,6.15 14.47,14.08 0,1.28 -0.19,2.5 -0.38,3.39 h -24.78 c 0.19,7.75 5.12,12.42 12.04,12.42 4.16,0 7.68,-1.92 9.8,-4.8 l 4.03,3.14 c -3.01,4.03 -7.81,6.59 -13.83,6.59 z m -11.65,-21.51 h 19.33 c -0.19,-4.74 -3.46,-8.71 -9.16,-8.71 -5.31,0 -9.03,3.14 -10.18,8.71 z"
           id="path15" />
        <path
           d="m 666.63,409.8 h 5.44 v 4.03 c 2.37,-2.82 5.31,-4.67 9.41,-4.67 1.02,0 1.98,0.13 2.75,0.38 v 5.31 c -0.96,-0.26 -1.92,-0.38 -3.2,-0.38 -4.23,0 -6.98,2.18 -8.96,5.44 v 22.15 h -5.44 v -32.27 z"
           id="path16" />
        <path
           d="m 692.43,434.38 c 2.24,2.82 4.93,4.42 8.19,4.42 3.58,0 5.63,-2.18 5.63,-4.99 0,-7.23 -16.13,-4.67 -16.13,-16.07 0,-5.06 4.29,-9.22 10.5,-9.22 4.61,0 8.58,2.18 10.82,5.31 l -3.78,3.2 c -1.73,-2.43 -4.16,-3.97 -6.98,-3.97 -3.46,0 -5.31,2.05 -5.31,4.55 0,7.23 16.2,4.93 16.2,15.94 -0.06,6.02 -4.87,9.8 -10.88,9.8 -5.12,0 -9.16,-2.05 -12.1,-5.7 l 3.84,-3.26 z"
           id="path17" />
        <path
           d="m 722.52,414.73 h -6.08 v -4.93 h 6.08 v -8.07 h 5.51 v 8.07 h 11.2 v 4.93 h -11.2 v 16.52 c 0,5.06 2.56,6.47 6.47,6.47 2.11,0 3.58,-0.26 4.8,-0.77 v 4.87 c -1.54,0.64 -3.27,0.9 -5.57,0.9 -7.17,0 -11.2,-3.58 -11.2,-11.46 v -16.52 z"
           id="path18" />
        <path
           d="m 745.7,433.94 c 0,-4.87 3.71,-8.32 10.56,-9.48 l 10.88,-1.79 v -2.24 c 0,-4.48 -3.2,-7.04 -7.81,-7.04 -3.71,0 -6.72,1.73 -8.71,4.48 l -4.1,-3.14 c 2.82,-3.84 7.36,-6.21 13,-6.21 8.19,0 13.06,4.8 13.06,11.91 v 21.64 h -5.44 v -4.1 c -2.43,3.14 -6.66,4.99 -10.82,4.99 -6.34,0 -10.63,-3.52 -10.63,-9.03 z m 11.52,4.54 c 4.29,0 7.81,-2.05 9.92,-5.51 v -6.34 l -9.54,1.6 c -4.42,0.77 -6.4,2.75 -6.4,5.51 0,2.76 2.24,4.74 6.02,4.74 z"
           id="path19" />
        <path
           d="m 783.54,409.8 h 5.44 v 3.65 c 2.62,-2.88 5.95,-4.93 10.76,-4.93 7.23,0 12.61,4.87 12.61,14.02 v 19.53 h -5.44 v -19.33 c 0,-5.76 -3.26,-9.09 -8.26,-9.09 -4.67,0 -7.62,2.69 -9.67,6.08 v 22.34 h -5.44 z"
           id="path20" />
        <path
           d="m 837.13,408.52 c 4.8,0 8.58,1.86 11.46,5.12 v -19.59 h 5.44 v 48.02 h -5.44 v -3.84 c -2.88,3.27 -6.66,5.12 -11.46,5.12 -10.12,0 -16.58,-8 -16.58,-17.41 0,-9.41 6.47,-17.41 16.58,-17.41 z m 0.64,29.71 c 4.48,0 8.45,-2.18 10.82,-5.95 V 419.6 c -2.5,-3.84 -6.4,-5.95 -10.82,-5.95 -6.85,0 -11.46,5.44 -11.46,12.29 0,6.85 4.61,12.29 11.46,12.29 z"
           id="path21" />
        <path
           d="m 864.41,397.57 c 0,-2.05 1.73,-3.78 3.84,-3.78 2.11,0 3.78,1.73 3.78,3.78 0,2.05 -1.66,3.84 -3.78,3.84 -2.12,0 -3.84,-1.73 -3.84,-3.84 z m 1.09,12.23 h 5.44 v 32.27 h -5.44 z"
           id="path22" />
        <path
           d="m 882.46,409.8 h 5.44 v 3.65 c 2.63,-2.88 5.96,-4.93 10.76,-4.93 7.23,0 12.61,4.87 12.61,14.02 v 19.53 h -5.44 v -19.33 c 0,-5.76 -3.27,-9.09 -8.26,-9.09 -4.67,0 -7.62,2.69 -9.67,6.08 v 22.34 h -5.44 z"
           id="path23" />
        <path
           d="m 923.31,439.76 c -1.47,-1.15 -2.24,-2.88 -2.24,-4.61 0,-2.56 1.34,-4.67 3.84,-6.27 -2.82,-2.11 -4.48,-5.38 -4.48,-8.96 0,-6.21 4.87,-11.46 12.55,-11.46 2.37,0 4.48,0.51 6.21,1.34 h 11.97 v 4.74 h -6.98 c 0.9,1.6 1.34,3.46 1.34,5.38 0,6.15 -4.8,11.4 -12.55,11.4 -1.6,0 -3.14,-0.26 -4.48,-0.64 -1.34,0.96 -2.11,2.11 -2.11,3.33 0,1.34 0.7,2.31 2.69,2.31 h 9.22 c 8.52,0 12.48,4.16 12.48,9.92 0,6.79 -6.79,11.84 -16.45,11.84 -9.66,0 -15.81,-3.71 -15.81,-10.18 0,-3.26 1.6,-5.89 4.8,-8.13 z m 10.95,13.77 c 6.79,0 11.08,-2.69 11.08,-6.91 0,-3.07 -1.73,-5.51 -7.49,-5.51 h -10.44 c -2.24,1.66 -3.58,3.58 -3.58,6.15 0,3.91 4.03,6.27 10.43,6.27 z m 6.15,-33.62 c 0,-3.97 -2.69,-7.17 -7.36,-7.17 -4.67,0 -7.43,3.2 -7.43,7.17 0,3.97 2.62,7.11 7.43,7.11 4.81,0 7.36,-3.2 7.36,-7.11 z"
           id="path24" />
      </g>
    </g>
  </g>
</svg>
